<?xml version="1.0" encoding="utf-8"?>
<!-- Generator: Adobe Illustrator 16.0.0, SVG Export Plug-In . SVG Version: 6.00 Build 0)  -->
<!DOCTYPE svg PUBLIC "-//W3C//DTD SVG 1.1//EN" "http://www.w3.org/Graphics/SVG/1.1/DTD/svg11.dtd">
<svg version="1.1" id="Layer_1" xmlns="http://www.w3.org/2000/svg" xmlns:xlink="http://www.w3.org/1999/xlink" x="0px" y="0px"
	 width="748.833px" height="271.097px" viewBox="0 0 748.833 271.097" enable-background="new 0 0 748.833 271.097"
	 xml:space="preserve">
<g>
	<path fill="#FFFFFF" d="M305.302,178.601c0.845-22.768,63.244-154.61,63.244-154.61l-34.574,3.651
		c-12.366,24.173-31.481,82.366-31.481,82.366c-6.745-8.996-14.341-9.838-18.837-10.401c-4.497-0.561-18.832-1.119-26.709,14.06
		c-7.866,15.177-35.697,61.844-48.065,77.868c-12.372,16.023-8.997,2.813-8.717-2.251c0.282-5.055,11.899-38.604,11.899-38.604
		h8.998l11.242-20.989h-11.993L271.284,4.499l-29.239,2.243l-3.744,4.502L228.556,0c-45.729,35.981-146.93,33.732-146.93,33.732
		l24.926,49.478c15.18-5.434,98.106-47.134,98.106-47.134l-71.681,81.523l-58.759-8.15l8.992,38.515c0,0,1.973-0.844,11.812-0.563
		c9.838,0.282,4.496,5.063,4.496,5.063L0,240.449c11.25,23.334,48.073,30.648,48.073,30.648
		c26.146-18.844,98.958-126.229,98.958-126.229l39.541,0.282c0,0-4.121,7.029-11.716,34.015
		c-7.584,26.987-6.458,37.104,13.216,40.763c19.679,3.656,43.576-46.947,43.576-46.947c-9.28,36.826-4.22,44.699,12.368,43.572
		c16.583-1.123,32.045-28.11,32.045-28.11c-4.22,16.866,5.06,28.679,23.333,23.896c18.272-4.779,61.564-91.925,61.564-91.925
		s-32.897,43.855-38.795,52.567C316.265,181.694,304.456,201.375,305.302,178.601z M165.023,122.38l54.257-69.998l-24.179,71.967
		L165.023,122.38z M293.772,141.214c-4.778,13.771-32.608,57.349-36.269,57.349c-3.647,0-3.366-10.405,0-21.362
		c3.379-10.968,24.183-52.851,24.183-52.851s2.812-8.153,7.308-8.153S298.552,127.437,293.772,141.214z"/>
	<path fill="#FFFFFF" d="M733.722,106.078c-7.877-4.218-35.139-3.378-40.198,1.684c-5.061,5.058-22.493,38.514-30.923,47.225
		c-8.432,8.718-13.772,15.464-17.435,11.247c-3.651-4.217,15.743-42.449,17.151-46.945c1.408-4.497,5.06-10.685,3.934-12.084
		c-1.127-1.413-15.181-10.971-24.455-10.684c-9.274,0.282-14.054,12.647-22.765,19.953c-8.724,7.312-10.971,7.029-8.724,3.093
		c2.255-3.933,13.22-23.609,13.22-23.609H593.72c-8.711,27.267-42.44,68.313-49.755,72.53c-7.303,4.212-4.777-7.311-4.215-11.105
		c0.563-3.795,30.924-63.675,30.924-63.675h-28.952l-5.624,9.277c-5.06-14.054-39.081-16.307-48.639,6.467
		c-9.557,22.771-35.982,56.505-44.132,66.339c-8.158,9.843-6.75-6.458-5.342-13.49c1.409-7.026,30.924-67.468,30.924-67.468
		l-30.924,1.402c-12.938,48.918-41.89,80.121-45.259,83.496c-3.381,3.373-8.158,3.089-7.878-1.969
		c0.282-5.061,14.898-40.196,15.744-47.792c0.846-7.587-9.274-11.808-14.617-13.771c-5.339-1.969-8.989-11.808-8.989-14.621
		c0-2.81,10.397-10.684,10.963-15.457c0.563-4.781-13.78-10.402-19.403-13.213c-5.618-2.812-7.021,1.966-7.021,1.966
		s-8.153,17.147-9.558,20.524c-1.411,3.37-8.998,6.466-1.689,17.424c7.309,10.966,19.112,17.716,19.959,21.087
		c-0.282,16.023-19.396,51.164-17.992,58.755c1.408,7.587,22.488,10.117,28.957,9.559c6.466-0.566,28.396-31.208,28.396-31.208
		s-1.689,9.56-0.286,16.589c1.402,7.026,15.737,9.836,23.896,9.554c8.148-0.275,29.797-31.761,29.797-31.761
		c-0.563,16.085,2.254,25.858,17.152,25.58c14.897-0.282,21.367-14.056,23.608-17.144c2.255-3.095,7.027-9.001,5.906-3.378
		c-4.779,16.31,14.898,16.02,25.581,15.743c10.685-0.281,33.73-38.795,35.139-34.581c1.409,4.221-7.313,30.363-5.622,31.77
		c1.689,1.406,18.55,1.124,22.492-3.093c3.935-4.212,29.797-48.635,33.449-54.254c3.661-5.621,8.992-7.027,8.992-0.563
		c0,6.466-12.362,32.05-14.616,43.292c-2.243,11.244,3.099,12.655,21.648,13.495c18.55,0.843,42.171-37.39,42.171-37.39
		s0,0,10.965,5.061c10.955,5.057,18.269,12.086,21.639,20.806c3.38,8.712-26.979-13.213-26.979-13.213l-16.025,16.865
		c0,0,1.398,7.59,23.61,12.084c22.212,4.502,36.266,0.29,46.947-14.612c10.685-14.902-18.83-29.52-25.018-34.58
		c-6.188-5.058-6.469-21.928,5.342-18.555c11.799,3.373,1.681,16.31,1.681,16.31s21.93,8.712,23.619,8.431
		C755.935,115.35,741.588,110.291,733.722,106.078z M518.947,140.932c-6.75,12.089-19.958,33.454-25.3,32.614
		c-5.342-0.849-1.127-19.377,3.65-27.685c4.778-8.3,15.462-34.441,19.958-36.695c4.497-2.251,12.093-3.654,12.655,8.992
		C529.911,118.16,525.697,128.843,518.947,140.932z"/>
	<path fill="#FFFFFF" d="M693.805,78.524l-21.931,23.61l9.839,5.545c0,0,22.775-16.221,28.398-16.221
		C710.112,91.459,702.235,80.494,693.805,78.524z"/>
	<path fill="#FFFFFF" d="M493.083,40.856c0,0-26.427,39.356-26.709,44.132l-20.24,1.411c0,0,7.597-39.077,17.717-45.543H493.083z"/>
</g>
<g>
	<g>
		<path fill="#FFFFFF" d="M430.225,241.297c-0.995,1.148-2.107,2.068-3.338,2.76c-1.234,0.7-2.469,1.049-3.707,1.049
			c-1.365,0-2.684-0.404-3.973-1.19c-1.281-0.802-2.326-2.027-3.129-3.679s-1.206-3.468-1.206-5.441
			c0-2.428,0.624-4.865,1.875-7.307c1.241-2.436,2.79-4.271,4.642-5.49c1.852-1.227,3.652-1.84,5.396-1.84
			c1.33,0,2.6,0.346,3.806,1.047c1.21,0.695,2.248,1.752,3.12,3.176l0.783-3.558h4.107l-3.303,15.396
			c-0.464,2.146-0.691,3.329-0.691,3.562c0,0.409,0.156,0.767,0.471,1.065c0.313,0.295,0.693,0.452,1.137,0.452
			c0.81,0,1.873-0.468,3.188-1.399c1.744-1.227,3.128-2.87,4.143-4.925c1.019-2.056,1.525-4.182,1.525-6.372
			c0-2.555-0.652-4.94-1.964-7.161c-1.306-2.213-3.257-3.989-5.851-5.318c-2.594-1.332-5.455-2-8.592-2
			c-3.577,0-6.85,0.84-9.811,2.515s-5.258,4.081-6.889,7.206c-1.627,3.124-2.439,6.482-2.439,10.063c0,3.75,0.813,6.978,2.439,9.686
			c1.631,2.709,3.984,4.705,7.072,6.003c3.082,1.289,6.497,1.937,10.248,1.937c4.01,0,7.366-0.673,10.074-2.021
			c2.707-1.349,4.736-2.983,6.08-4.909h4.15c-0.779,1.604-2.117,3.238-4.014,4.909c-1.898,1.67-4.154,2.991-6.771,3.959
			c-2.614,0.974-5.764,1.461-9.451,1.461c-3.398,0-6.533-0.44-9.4-1.313c-2.87-0.873-5.314-2.179-7.33-3.931
			c-2.017-1.753-3.542-3.773-4.568-6.054c-1.285-2.889-1.926-6.013-1.926-9.362c0-3.729,0.766-7.288,2.295-10.667
			c1.867-4.146,4.517-7.319,7.952-9.525c3.435-2.205,7.594-3.306,12.491-3.306c3.797,0,7.201,0.778,10.225,2.331
			c3.02,1.554,5.402,3.864,7.148,6.942c1.485,2.646,2.225,5.521,2.225,8.626c0,4.435-1.557,8.377-4.68,11.821
			c-2.78,3.093-5.83,4.634-9.132,4.634c-1.054,0-1.91-0.162-2.563-0.479c-0.643-0.322-1.123-0.778-1.43-1.381
			C430.459,242.885,430.314,242.225,430.225,241.297z M419.12,235.076c0,2.094,0.495,3.726,1.491,4.886
			c0.992,1.163,2.133,1.744,3.414,1.744c0.857,0,1.762-0.256,2.713-0.767c0.941-0.516,1.855-1.273,2.719-2.284
			c0.862-1.01,1.57-2.292,2.123-3.844c0.551-1.556,0.825-3.113,0.825-4.67c0-2.082-0.519-3.694-1.548-4.847
			c-1.034-1.143-2.296-1.717-3.777-1.717c-0.98,0-1.9,0.247-2.764,0.746c-0.865,0.496-1.707,1.293-2.516,2.398
			c-0.81,1.1-1.463,2.438-1.95,4.017C419.363,232.312,419.12,233.763,419.12,235.076z"/>
	</g>
	<g>
		<path fill="#FFFFFF" d="M483.916,222.749v6.789h-4.618c-0.417-1.407-0.925-2.515-1.533-3.333c-0.606-0.81-1.304-1.376-2.106-1.703
			c-0.803-0.322-1.797-0.487-2.984-0.487c-1.693,0-3.199,0.487-4.508,1.459c-1.313,0.979-2.35,2.465-3.113,4.453
			c-0.762,1.994-1.141,4.43-1.141,7.309c0,1.839,0.143,3.528,0.434,5.054s0.785,2.829,1.492,3.914
			c0.7,1.085,1.636,1.927,2.799,2.531c1.164,0.606,2.61,0.908,4.326,0.908c1.67,0,3.233-0.294,4.676-0.877
			c1.441-0.58,2.939-1.611,4.492-3.089l2.07,2.146c-1.233,1.216-2.326,2.151-3.27,2.815c-0.947,0.66-1.961,1.209-3.038,1.658
			c-1.083,0.44-2.142,0.763-3.203,0.972c-1.056,0.203-2.198,0.311-3.436,0.311c-4.583,0-8.085-1.361-10.511-4.081
			c-2.425-2.716-3.635-6.642-3.635-11.772c0-3.206,0.68-6.048,2.035-8.525c1.356-2.479,3.257-4.394,5.712-5.739
			c2.448-1.335,5.274-2.012,8.474-2.012c1.987,0,3.823,0.106,5.51,0.311C480.524,221.963,482.215,222.292,483.916,222.749z"/>
		<path fill="#FFFFFF" d="M505.483,253.578c-5.047,0-8.891-1.329-11.55-3.982c-2.654-2.653-3.984-6.575-3.984-11.775
			c0-3.573,0.7-6.593,2.092-9.061c1.395-2.468,3.305-4.308,5.729-5.503c2.422-1.202,5.188-1.809,8.294-1.809
			c5.188,0,9.116,1.353,11.785,4.046c2.665,2.691,4.001,6.568,4.001,11.609c0,3.597-0.668,6.627-2.005,9.1
			c-1.333,2.468-3.223,4.313-5.672,5.535C511.725,252.963,508.828,253.578,505.483,253.578z M496.827,237.139
			c0,4.457,0.788,7.885,2.378,10.274c1.59,2.399,3.864,3.594,6.82,3.594c1.627,0,3.011-0.35,4.15-1.054
			c1.137-0.706,2.063-1.649,2.779-2.842c0.712-1.194,1.23-2.573,1.545-4.143c0.314-1.571,0.472-3.211,0.472-4.921
			c0-3.184-0.393-5.825-1.179-7.928c-0.785-2.098-1.863-3.638-3.223-4.626c-1.352-0.982-2.908-1.479-4.654-1.479
			c-2.934,0-5.18,1.136-6.744,3.408C497.606,229.698,496.827,232.933,496.827,237.139z"/>
		<path fill="#FFFFFF" d="M538.905,244.937c0,1.86,0.098,3.152,0.293,3.876c0.191,0.731,0.564,1.282,1.11,1.659
			c0.543,0.377,1.436,0.706,2.673,0.99v1.588H528.54v-1.588c1.215-0.284,2.057-0.571,2.527-0.882
			c0.476-0.297,0.814-0.659,1.018-1.083c0.205-0.418,0.354-0.999,0.44-1.722c0.082-0.724,0.126-1.67,0.126-2.839v-27.191
			c0-2.075-0.016-3.529-0.056-4.348c-0.039-0.83-0.134-1.529-0.29-2.099c-0.158-0.574-0.378-1.025-0.655-1.348
			c-0.281-0.327-0.656-0.586-1.13-0.783c-0.472-0.195-1.325-0.393-2.563-0.581v-1.689l8.766-0.324h2.181L538.905,244.937
			L538.905,244.937z"/>
		<path fill="#FFFFFF" d="M578.48,247.532c-1.557,1.454-2.979,2.586-4.276,3.411c-1.298,0.821-2.72,1.469-4.277,1.934
			c-1.548,0.464-3.254,0.701-5.126,0.701c-4.991,0-8.765-1.337-11.312-4.018c-2.547-2.675-3.819-6.62-3.819-11.836
			c0-3.227,0.653-6.073,1.947-8.544c1.298-2.473,3.145-4.377,5.542-5.721c2.405-1.336,5.164-2.013,8.294-2.013
			c2.452,0,4.536,0.346,6.258,1.042c1.722,0.691,3.097,1.641,4.128,2.842c1.03,1.202,1.831,2.715,2.404,4.547
			c0.565,1.828,0.889,4.218,0.959,7.158h-22.915v0.589c0,2.557,0.322,4.702,0.967,6.447c0.644,1.744,1.698,3.105,3.159,4.096
			c1.471,0.983,3.381,1.473,5.73,1.473c1.989,0,3.782-0.329,5.37-0.988c1.587-0.661,3.168-1.738,4.74-3.235L578.48,247.532z
			 M572.364,234.344c-0.143-2.339-0.472-4.249-0.983-5.73c-0.512-1.485-1.273-2.621-2.287-3.415
			c-1.021-0.785-2.351-1.183-4.002-1.183c-2.5,0-4.497,0.892-5.981,2.682c-1.494,1.783-2.375,4.335-2.642,7.647L572.364,234.344
			L572.364,234.344z"/>
		<path fill="#FFFFFF" d="M595.57,227.006l0.511,0.125c1.455-1.297,2.649-2.279,3.586-2.938c0.927-0.661,1.831-1.188,2.704-1.593
			c0.872-0.397,1.69-0.688,2.452-0.86c0.77-0.167,1.549-0.261,2.351-0.261c2.422,0,4.402,0.503,5.928,1.493
			c1.524,1,2.578,2.527,3.167,4.585c1.816-1.648,3.286-2.862,4.418-3.642c1.124-0.778,2.272-1.379,3.451-1.801
			c1.18-0.42,2.445-0.636,3.805-0.636c1.62,0,3.019,0.216,4.198,0.636c1.179,0.422,2.17,1.071,2.979,1.951
			c0.817,0.876,1.406,1.972,1.784,3.292c0.378,1.322,0.565,3.098,0.565,5.33v12.248c0,1.644,0.055,2.779,0.181,3.405
			c0.118,0.633,0.299,1.12,0.527,1.461c0.228,0.354,0.573,0.649,1.037,0.896c0.456,0.252,1.234,0.503,2.327,0.763v1.588H627.25
			v-1.588c0.943-0.26,1.619-0.486,2.036-0.685c0.408-0.196,0.754-0.462,1.038-0.809c0.274-0.346,0.495-0.881,0.652-1.608
			c0.157-0.727,0.235-1.827,0.235-3.298v-8.511c0-1.835-0.054-3.359-0.165-4.562c-0.11-1.204-0.278-2.162-0.511-2.877
			c-0.228-0.711-0.503-1.273-0.833-1.689c-0.33-0.409-0.7-0.769-1.108-1.07c-0.417-0.302-0.896-0.543-1.455-0.715
			c-0.558-0.174-1.297-0.261-2.225-0.261c-0.967,0-1.871,0.174-2.704,0.52c-0.833,0.349-1.745,0.932-2.729,1.753
			c-0.982,0.825-1.689,1.649-2.13,2.488c-0.432,0.837-0.652,1.812-0.652,2.936v11.862c0,1.644,0.063,2.778,0.181,3.403
			c0.118,0.633,0.298,1.122,0.527,1.463c0.228,0.354,0.581,0.647,1.037,0.896c0.464,0.25,1.241,0.502,2.327,0.763v1.588H606.48
			v-1.588c0.943-0.261,1.627-0.487,2.035-0.685c0.409-0.197,0.755-0.464,1.038-0.81c0.275-0.346,0.495-0.88,0.652-1.607
			c0.157-0.729,0.236-1.829,0.236-3.298v-8.511c0-1.929-0.063-3.493-0.181-4.704c-0.122-1.219-0.307-2.193-0.565-2.929
			c-0.252-0.734-0.582-1.332-0.983-1.788c-0.393-0.447-0.802-0.798-1.21-1.038c-0.417-0.239-0.904-0.416-1.455-0.538
			c-0.558-0.113-1.194-0.177-1.895-0.177c-0.998,0-1.927,0.2-2.799,0.602c-0.872,0.396-1.769,0.979-2.673,1.741
			c-0.912,0.755-1.596,1.545-2.059,2.371c-0.464,0.821-0.692,1.71-0.692,2.66v12.186c0,1.23,0.039,2.174,0.11,2.821
			c0.071,0.652,0.188,1.159,0.346,1.524c0.157,0.369,0.362,0.668,0.598,0.896c0.244,0.226,0.59,0.441,1.038,0.652
			c0.448,0.204,1.123,0.413,2.02,0.63v1.588h-14.26v-1.588c0.928-0.261,1.588-0.487,1.99-0.685c0.392-0.197,0.737-0.464,1.028-0.81
			s0.513-0.88,0.66-1.593c0.142-0.709,0.216-1.827,0.216-3.343V230.87c0-1.388-0.026-2.503-0.074-3.345
			c-0.048-0.841-0.212-1.525-0.511-2.033c-0.292-0.506-0.731-0.884-1.32-1.136c-0.598-0.247-1.439-0.464-2.531-0.636v-1.722
			l8.514-0.292h2.216L595.57,227.006z"/>
		<path fill="#FFFFFF" d="M668.743,248.412l-0.543-0.134c-2.107,1.927-4.089,3.294-5.943,4.096
			c-1.855,0.804-3.829,1.204-5.912,1.204c-1.847,0-3.467-0.322-4.873-0.96c-1.408-0.641-2.484-1.541-3.239-2.696
			c-0.756-1.155-1.124-2.5-1.124-4.013c0-3.163,1.753-5.602,5.251-7.326c3.507-1.719,8.762-2.724,15.77-3.004v-2.11
			c0-2.253-0.243-4.024-0.731-5.33c-0.479-1.297-1.249-2.247-2.287-2.858c-1.046-0.604-2.436-0.907-4.182-0.907
			c-1.896,0-3.412,0.441-4.568,1.33c-1.147,0.888-2.021,2.225-2.602,3.997h-4.764v-4.226c2.334-1.077,4.269-1.878,5.824-2.381
			c1.549-0.512,3.098-0.912,4.654-1.204c1.549-0.294,3.128-0.439,4.725-0.439c2.405,0,4.332,0.341,5.786,1.021
			c1.455,0.684,2.547,1.73,3.271,3.137c0.73,1.406,1.091,3.529,1.091,6.367v11.305c0,1.599,0.017,2.728,0.041,3.388
			c0.022,0.668,0.094,1.28,0.22,1.84c0.117,0.563,0.298,1.014,0.542,1.344c0.244,0.339,0.598,0.628,1.069,0.864
			c0.479,0.236,1.25,0.486,2.312,0.747v1.588h-9.969L668.743,248.412z M668.129,238.24c-4.92,0.047-8.607,0.628-11.061,1.753
			c-2.444,1.132-3.671,2.83-3.671,5.101c0,1.236,0.283,2.21,0.841,2.924c0.559,0.716,1.258,1.211,2.106,1.479
			c0.85,0.266,1.855,0.409,3.02,0.409c1.65,0,3.144-0.362,4.488-1.077c1.353-0.711,2.398-1.619,3.148-2.725
			c0.751-1.105,1.128-2.201,1.128-3.281V238.24L668.129,238.24z"/>
		<path fill="#FFFFFF" d="M719.519,253.05h-14.331v-1.588c0.95-0.259,1.626-0.485,2.043-0.685c0.409-0.195,0.755-0.462,1.03-0.808
			c0.282-0.346,0.498-0.882,0.659-1.608c0.157-0.728,0.236-1.828,0.236-3.298v-8.511c0-1.513-0.056-2.889-0.149-4.122
			c-0.094-1.235-0.26-2.247-0.486-3.039c-0.236-0.79-0.513-1.411-0.842-1.852c-0.322-0.444-0.715-0.821-1.163-1.136
			c-0.448-0.318-0.959-0.565-1.541-0.746c-0.586-0.185-1.352-0.278-2.295-0.278s-1.84,0.165-2.689,0.503
			c-0.849,0.337-1.784,0.92-2.806,1.736c-1.015,0.826-1.753,1.636-2.218,2.438c-0.454,0.801-0.684,1.721-0.684,2.758v12.122
			c0,1.86,0.095,3.154,0.292,3.878c0.188,0.729,0.558,1.28,1.104,1.658c0.546,0.377,1.434,0.707,2.672,0.989v1.588h-14.256v-1.588
			c0.943-0.259,1.619-0.485,2.021-0.683c0.4-0.197,0.739-0.464,1.015-0.81c0.282-0.346,0.495-0.882,0.66-1.593
			c0.158-0.71,0.235-1.827,0.235-3.343v-14.164c0-1.388-0.023-2.503-0.077-3.343c-0.048-0.842-0.213-1.526-0.505-2.033
			c-0.29-0.508-0.737-0.884-1.328-1.136c-0.597-0.247-1.438-0.464-2.531-0.638V222l8.515-0.29h2.216l-0.4,5.299l0.512,0.125
			c1.792-1.624,3.238-2.783,4.347-3.475c1.101-0.692,2.217-1.227,3.349-1.603c1.125-0.382,2.319-0.576,3.577-0.576
			c1.313,0,2.476,0.139,3.515,0.409c1.029,0.271,1.933,0.689,2.728,1.25c0.786,0.566,1.43,1.267,1.941,2.091
			c0.511,0.842,0.896,1.84,1.146,3.011c0.252,1.164,0.378,2.649,0.378,4.451v12.247c0,1.489,0.047,2.573,0.149,3.246
			c0.094,0.668,0.267,1.188,0.511,1.557c0.239,0.368,0.59,0.676,1.054,0.928c0.455,0.247,1.257,0.511,2.397,0.793V253.05
			L719.519,253.05z"/>
	</g>
</g>
</svg>
